HIERARCHY
ROOT Hips
{
	OFFSET 0.000000 0.000000 0.000000
	CHANNELS 6 Xposition Yposition Zposition Xrotation Yrotation Zrotation
	JOINT LeftUpLeg_virtual
	{
		OFFSET 0.000000 0.000000 0.000000
		CHANNELS 3 Xrotation Yrotation Zrotation
		JOINT LeftUpLeg
		{
			OFFSET 10.205400 -3.823500 0.155100
			CHANNELS 3 Xrotation Yrotation Zrotation
			JOINT LeftLeg
			{
				OFFSET 0.708757 -12.982077 0.567790
				CHANNELS 3 Xrotation Yrotation Zrotation
				JOINT LeftFoot
				{
					OFFSET -0.708756 -10.717838 -2.184338
					CHANNELS 3 Xrotation Yrotation Zrotation
					JOINT LeftToeBase
					{
						OFFSET 0.108149 -7.191104 7.560241
						CHANNELS 3 Xrotation Yrotation Zrotation
						JOINT LeftToe_End
						{
							OFFSET 0.070230 0.081724 4.490308
							CHANNELS 3 Xrotation Yrotation Zrotation
							End Site
							{
								OFFSET 0 0 0
							}
						}
					}
				}
			}
		}
	}
	JOINT RightUpLeg_virtual
	{
		OFFSET 0.000000 0.000000 0.000000
		CHANNELS 3 Xrotation Yrotation Zrotation
		JOINT RightUpLeg
		{
			OFFSET -10.205400 -3.823500 0.005500
			CHANNELS 3 Xrotation Yrotation Zrotation
			JOINT RightLeg
			{
				OFFSET -0.708756 -12.982134 0.610632
				CHANNELS 3 Xrotation Yrotation Zrotation
				JOINT RightFoot
				{
					OFFSET 0.708754 -10.717769 -1.945823
					CHANNELS 3 Xrotation Yrotation Zrotation
					JOINT RightToeBase
					{
						OFFSET -0.108140 -7.191069 7.372968
						CHANNELS 3 Xrotation Yrotation Zrotation
						JOINT RightToe_End
						{
							OFFSET -0.070227 0.081735 4.479403
							CHANNELS 3 Xrotation Yrotation Zrotation
							End Site
							{
								OFFSET 0 0 0
							}
						}
					}
				}
			}
		}
	}
	JOINT Spine_virtual
	{
		OFFSET 0.000000 0.000000 0.000000
		CHANNELS 3 Xrotation Yrotation Zrotation
		JOINT Spine
		{
			OFFSET 0.000000 6.876099 0.125700
			CHANNELS 3 Xrotation Yrotation Zrotation
			JOINT Spine1
			{
				OFFSET 0.000000 5.730043 0.104720
				CHANNELS 3 Xrotation Yrotation Zrotation
				JOINT Spine1_split
				{
					OFFSET 0.000000 5.730043 0.104720
					CHANNELS 3 Xrotation Yrotation Zrotation
					JOINT Spine2
					{
						OFFSET 0.000000 5.730043 0.104720
						CHANNELS 3 Xrotation Yrotation Zrotation
						JOINT Neck_virtual
						{
							OFFSET 0.000000 0.000000 0.000000
							CHANNELS 3 Xrotation Yrotation Zrotation
							JOINT Neck
							{
								OFFSET 0.000000 10.314075 0.188496
								CHANNELS 3 Xrotation Yrotation Zrotation
								JOINT Head
								{
									OFFSET 0.000000 7.643700 -2.377400
									CHANNELS 3 Xrotation Yrotation Zrotation
									JOINT HeadTop_End
									{
										OFFSET 0.000000 43.788605 -13.619600
										CHANNELS 3 Xrotation Yrotation Zrotation
										End Site
										{
											OFFSET 0 0 0
										}
									}
								}
							}
						}
						JOINT LeftShoulder_virtual
						{
							OFFSET 0.000000 0.000000 0.000000
							CHANNELS 3 Xrotation Yrotation Zrotation
							JOINT LeftShoulder
							{
								OFFSET 2.196100 4.412489 0.087492
								CHANNELS 3 Xrotation Yrotation Zrotation
								JOINT LeftShoulder_split
								{
									OFFSET 2.196100 4.412489 0.087492
									CHANNELS 3 Xrotation Yrotation Zrotation
									JOINT LeftArm
									{
										OFFSET 8.771219 -2.981674 -0.026999
										CHANNELS 3 Xrotation Yrotation Zrotation
										JOINT LeftForeArm
										{
											OFFSET 8.512804 0.000000 -0.000000
											CHANNELS 3 Xrotation Yrotation Zrotation
											JOINT LeftHand
											{
												OFFSET 18.484802 0.000000 -0.000000
												CHANNELS 3 Xrotation Yrotation Zrotation
												End Site
												{
													OFFSET 0 0 0
												}
											}
										}
									}
								}
							}
						}
						JOINT RightShoulder_virtual
						{
							OFFSET 0.000000 0.000000 0.000000
							CHANNELS 3 Xrotation Yrotation Zrotation
							JOINT RightShoulder
							{
								OFFSET -2.196100 4.412496 0.070690
								CHANNELS 3 Xrotation Yrotation Zrotation
								JOINT RightShoulder_split
								{
									OFFSET -2.196100 4.412496 0.070690
									CHANNELS 3 Xrotation Yrotation Zrotation
									JOINT RightArm
									{
										OFFSET -8.771282 -2.981682 -0.094208
										CHANNELS 3 Xrotation Yrotation Zrotation
										JOINT RightForeArm
										{
											OFFSET -8.494598 0.000000 0.000000
											CHANNELS 3 Xrotation Yrotation Zrotation
											JOINT RightHand
											{
												OFFSET -18.483803 0.000000 0.000001
												CHANNELS 3 Xrotation Yrotation Zrotation
												End Site
												{
													OFFSET 0 0 0
												}
											}
										}
									}
								}
							}
						}
					}
				}
			}
		}
	}
}
MOTION
Frames: 10
Frame Time: 0.03333333
-0.144658 33.753906 0.302448 0.000000 0.000000 0.000000 -5.659913 -5.886783 3.571537 -6.895953 10.998341 6.467558 18.321701 6.378328 -0.133625 -3.234513 1.716355 -7.028448 0.185670 0.306627 -1.128809 0.000000 0.000000 0.000000 -5.203527 -4.364639 3.794439 15.082475 -15.213630 -7.475225 15.838794 -8.512088 -7.290821 -25.337565 -6.403044 8.037989 -4.242044 -0.299722 -1.011943 0.000000 0.000000 0.000000 -5.821121 -6.587178 3.301457 5.212346 1.552255 -2.418550 0.844084 0.333792 -0.340745 0.813060 0.344126 -0.017555 0.000000 0.000000 0.000000 1.147540 0.735949 -0.620978 1.547975 5.719202 0.243526 4.301926 -10.683636 3.617409 0.000000 0.000000 0.000000 1.005021 0.720414 -0.858868 -0.153718 -15.685886 -18.084382 -1.370116 -1.274708 -3.005329 13.802290 -1.910685 -32.827552 99.791325 -89.423589 99.349575 0.000000 0.000000 0.000000 0.887382 0.624984 -0.746124 0.461720 15.390052 12.434196 2.182696 2.901555 0.513809 7.482733 21.058230 38.513712 -173.889772 78.860162 173.313414 0.000000 0.000000 0.000000 
0.044731 33.684563 0.233049 0.000000 0.000000 0.000000 -5.645273 -6.180324 3.610032 -6.905492 10.338654 6.244296 18.750959 6.205860 0.059635 -3.711979 1.942484 -7.286758 0.066104 0.271199 -1.017226 0.000000 0.000000 0.000000 -5.397001 -4.357326 3.824638 14.865622 -15.671514 -7.797282 15.884013 -8.518553 -7.313342 -25.370847 -6.404338 7.834171 -3.659188 -0.410178 -1.014827 0.000000 0.000000 0.000000 -5.934829 -6.645438 3.236592 5.319633 1.510877 -2.372399 0.898163 0.301224 -0.302898 0.784493 0.381863 -0.006241 0.000000 0.000000 0.000000 1.102158 0.691106 -0.589386 1.487118 5.670437 0.185799 4.294527 -10.573102 3.544284 0.000000 0.000000 0.000000 1.006023 0.684409 -0.837245 -0.160074 -15.704794 -18.068345 -1.198919 -1.331646 -2.985314 13.907101 -1.714094 -32.979626 105.619976 -89.327400 105.162763 0.000000 0.000000 0.000000 0.911388 0.613220 -0.728863 0.459337 15.563153 12.558356 2.214451 2.997037 0.712730 7.600326 21.229264 38.651590 -173.841223 79.124709 173.267378 0.000000 0.000000 0.000000 
0.269660 33.525497 0.228092 0.000000 0.000000 0.000000 -5.675415 -6.591026 3.717453 -7.352833 9.870525 5.928386 20.034798 6.054868 0.239800 -4.859823 2.569723 -7.482212 -0.030747 0.263645 -0.981288 0.000000 0.000000 0.000000 -5.579040 -4.352938 3.913927 14.278488 -16.013780 -8.443902 16.566183 -8.437833 -7.276183 -25.977013 -6.528184 7.571720 -3.288259 -0.449240 -1.058365 0.000000 0.000000 0.000000 -6.100839 -6.758154 3.241217 5.458251 1.366547 -2.343230 0.966796 0.193826 -0.230090 0.751828 0.389989 -0.005719 0.000000 0.000000 0.000000 1.074954 0.575700 -0.518858 1.489773 5.614801 0.057631 4.256757 -10.491568 3.231642 0.000000 0.000000 0.000000 1.030416 0.572367 -0.770324 -0.172768 -15.729389 -18.083081 -1.065446 -1.349609 -2.893201 14.232950 -1.296911 -33.147731 125.273142 -89.097127 124.802528 0.000000 0.000000 0.000000 0.933122 0.522208 -0.660876 0.470740 15.688690 12.641981 2.210101 3.061558 0.771350 7.625136 21.738168 38.911195 -173.804149 79.554055 173.275998 0.000000 0.000000 0.000000 
0.503045 33.312359 0.250559 0.000000 0.000000 0.000000 -5.745162 -7.038103 3.893081 -8.202409 9.662378 5.504146 21.802727 5.926697 0.366267 -6.504981 3.481984 -7.646585 -0.044841 0.282300 -1.004570 0.000000 0.000000 0.000000 -5.715883 -4.492675 4.062953 13.336728 -16.172698 -9.359901 17.699943 -8.206284 -7.176127 -26.904935 -6.705849 7.349477 -3.235481 -0.425660 -1.133536 0.000000 0.000000 0.000000 -6.234428 -6.938116 3.314889 5.576303 1.153780 -2.340716 1.032621 0.031074 -0.136205 0.731331 0.439766 -0.009750 0.000000 0.000000 0.000000 1.057640 0.407889 -0.427667 1.545381 5.557765 -0.129002 4.129443 -10.429741 2.692713 0.000000 0.000000 0.000000 1.070891 0.399671 -0.668742 -0.184598 -15.765654 -18.113001 -1.005804 -1.365658 -2.802062 14.734704 -0.701280 -33.331678 142.546690 -88.631977 142.067839 0.000000 0.000000 0.000000 0.944873 0.366080 -0.554236 0.509268 15.754147 12.670771 2.172379 3.026089 0.703166 7.490704 22.446013 39.309829 -173.746202 80.054755 173.296857 0.000000 0.000000 0.000000 
0.739608 33.077263 0.246988 0.000000 0.000000 0.000000 -5.843214 -7.545864 4.084275 -9.359579 9.688524 5.003683 23.721928 5.766542 0.416232 -8.269716 4.545672 -7.908931 -0.013604 0.318279 -1.029920 0.000000 0.000000 0.000000 -5.790023 -4.884968 4.251877 12.059216 -16.114969 -10.460598 19.075822 -7.769540 -7.008715 -27.837891 -6.877335 7.304641 -3.375393 -0.357794 -1.193175 0.000000 0.000000 0.000000 -6.275650 -7.222493 3.446776 5.634812 0.902875 -2.369935 1.084124 -0.170462 -0.035234 0.767278 0.496086 -0.004141 0.000000 0.000000 0.000000 1.044333 0.205081 -0.331736 1.626100 5.490793 -0.347418 3.874679 -10.403273 1.974911 0.000000 0.000000 0.000000 1.117719 0.186348 -0.551718 -0.192217 -15.816184 -18.150756 -1.007600 -1.418123 -2.742091 15.377206 0.047501 -33.539306 152.879714 -87.960966 152.391943 0.000000 0.000000 0.000000 0.952593 0.167049 -0.427029 0.579261 15.765451 12.649022 2.126005 2.938390 0.583501 7.199357 23.223123 39.868405 -173.634952 80.590864 173.289686 0.000000 0.000000 0.000000 
0.972419 32.855320 0.180586 0.000000 0.000000 0.000000 -5.905005 -8.085470 4.255912 -10.693497 9.908398 4.462478 25.576670 5.542511 0.382022 -9.792939 5.634518 -8.282457 0.014794 0.358185 -1.000993 0.000000 0.000000 0.000000 -5.778482 -5.547411 4.439407 10.457082 -15.877755 -11.645120 20.586926 -7.083652 -6.784888 -28.539747 -7.001597 7.514992 -3.527854 -0.269152 -1.203368 0.000000 0.000000 0.000000 -6.191666 -7.622531 3.600319 5.611803 0.635464 -2.426601 1.117610 -0.398370 0.063181 0.745631 0.530687 0.045384 0.000000 0.000000 0.000000 1.033093 -0.014647 -0.240508 1.685807 5.394931 -0.568543 3.490168 -10.435339 1.134342 0.000000 0.000000 0.000000 1.160356 -0.050279 -0.434038 -0.198635 -15.875129 -18.191292 -1.052649 -1.503294 -2.708142 16.093077 0.894712 -33.767397 158.693380 -87.186169 158.191962 0.000000 0.000000 0.000000 0.951685 -0.055155 -0.295801 0.671191 15.754000 12.583484 2.102103 2.830645 0.442720 6.773711 23.969536 40.574179 -173.436712 81.163507 173.209731 0.000000 0.000000 0.000000 
1.203758 32.664845 0.081589 0.000000 0.000000 0.000000 -5.907130 -8.618340 4.378861 -12.057166 10.243274 3.963171 27.239628 5.303009 0.293408 -10.878908 6.718083 -8.653751 0.025035 0.393773 -0.924244 0.000000 0.000000 0.000000 -5.679964 -6.471900 4.591832 8.609499 -15.559996 -12.840167 22.167837 -6.157962 -6.545757 -28.935191 -7.080196 7.907443 -3.498833 -0.170572 -1.139782 0.000000 0.000000 0.000000 -6.019827 -8.194155 3.739540 5.524178 0.364077 -2.500643 1.134355 -0.646747 0.156309 0.673665 0.534270 0.103017 0.000000 0.000000 0.000000 1.026322 -0.245633 -0.157435 1.707025 5.254240 -0.769567 3.011136 -10.555589 0.240147 0.000000 0.000000 0.000000 1.197191 -0.300689 -0.325674 -0.209847 -15.944791 -18.229590 -1.112125 -1.604727 -2.677370 16.807759 1.804917 -34.004155 162.274585 -86.364655 161.753865 0.000000 0.000000 0.000000 0.943112 -0.293713 -0.169598 0.770827 15.748396 12.495761 2.093687 2.711794 0.314507 6.255018 24.633671 41.395622 -173.112893 81.798455 173.008009 0.000000 0.000000 0.000000 
1.419848 32.504448 -0.044437 0.000000 0.000000 0.000000 -5.855500 -9.242465 4.435731 -13.305153 10.633550 3.598200 28.648395 5.119909 0.189453 -11.490028 7.790095 -8.905429 0.023586 0.414974 -0.821451 0.000000 0.000000 0.000000 -5.504689 -7.439345 4.701028 6.607146 -15.307533 -13.961885 23.690496 -5.067317 -6.346465 -29.030418 -7.172724 8.368659 -3.236231 -0.072403 -1.017477 0.000000 0.000000 0.000000 -5.844011 -8.939335 3.837191 5.396312 0.099509 -2.591906 1.133112 -0.911812 0.239563 0.640624 0.510172 0.124389 0.000000 0.000000 0.000000 1.020678 -0.484642 -0.086537 1.695183 5.071461 -0.933155 2.481727 -10.797143 -0.641452 0.000000 0.000000 0.000000 1.232287 -0.556572 -0.229338 -0.220239 -16.025347 -18.256063 -1.162862 -1.667586 -2.659020 17.453360 2.735702 -34.216666 164.693141 -85.541877 164.148939 0.000000 0.000000 0.000000 0.935319 -0.539028 -0.055514 0.860323 15.759710 12.406292 2.063275 2.600826 0.233995 5.711091 25.243107 42.256587 -172.695186 82.489342 172.701688 0.000000 0.000000 0.000000 
1.618539 32.375801 -0.197170 0.000000 0.000000 0.000000 -5.759752 -9.963265 4.450779 -14.345055 11.005518 3.398510 29.738985 5.033389 0.108048 -11.758138 8.798265 -8.998318 0.014981 0.418500 -0.703283 0.000000 0.000000 0.000000 -5.296601 -8.327762 4.748288 4.502379 -15.266269 -14.970948 25.168875 -3.887275 -6.230700 -28.811282 -7.401955 8.836743 -2.829808 0.017315 -0.890488 0.000000 0.000000 0.000000 -5.657321 -9.815458 3.884386 5.248598 -0.157202 -2.696940 1.121489 -1.183948 0.307900 0.654523 0.447890 0.166561 0.000000 0.000000 0.000000 1.016068 -0.729612 -0.025474 1.676802 4.878660 -1.054586 1.956283 -11.171853 -1.464614 0.000000 0.000000 0.000000 1.275244 -0.814604 -0.144217 -0.222876 -16.110154 -18.272356 -1.223098 -1.687158 -2.662614 18.014042 3.643838 -34.380768 166.480329 -84.762169 165.915772 0.000000 0.000000 0.000000 0.933350 -0.786708 0.045658 0.932170 15.790060 12.337959 1.994116 2.510317 0.191858 5.190679 25.820084 43.076446 -172.230678 83.174984 172.331752 0.000000 0.000000 0.000000 
1.777843 32.281521 -0.358486 0.000000 0.000000 0.000000 -5.662230 -10.697862 4.435713 -15.133927 11.330182 3.365300 30.419603 4.990760 0.076743 -11.742589 9.703159 -9.105723 0.007305 0.411242 -0.576857 0.000000 0.000000 0.000000 -5.102469 -9.134085 4.750879 2.370908 -15.582074 -15.840493 26.628686 -2.713212 -6.228444 -28.293345 -7.908679 9.290646 -2.468231 0.086774 -0.791971 0.000000 0.000000 0.000000 -5.506597 -10.742598 3.883651 5.096955 -0.419453 -2.800018 1.115842 -1.456525 0.362483 0.723534 0.384366 0.213962 0.000000 0.000000 0.000000 1.017306 -0.980099 0.029422 1.693859 4.699279 -1.127725 1.500984 -11.660557 -2.202808 0.000000 0.000000 0.000000 1.327952 -1.076011 -0.069229 -0.218985 -16.196383 -18.276017 -1.287237 -1.670203 -2.661563 18.509555 4.492596 -34.500399 167.879807 -84.013458 167.297766 0.000000 0.000000 0.000000 0.943009 -1.037988 0.137481 0.995064 15.836553 12.304128 1.896034 2.434470 0.154469 4.682657 26.346399 43.841051 -171.687556 83.830573 171.864744 0.000000 0.000000 0.000000 
